<svg width="25" height="25" viewBox="0 0 25 25" fill="none" xmlns="http://www.w3.org/2000/svg">
<path d="M8.81719 0H2.12031C0.951562 0 0 0.951562 0 2.12109V8.81641C0 9.98594 0.951562 10.9375 2.12031 10.9375H8.81719C9.98594 10.9375 10.9375 9.98594 10.9375 8.81641V2.12109C10.9375 0.951562 9.98594 0 8.81719 0ZM9.375 8.81641C9.375 9.125 9.125 9.375 8.81719 9.375H2.12031C1.8125 9.375 1.5625 9.125 1.5625 8.81641V2.12109C1.5625 1.8125 1.8125 1.5625 2.12031 1.5625H8.81719C9.125 1.5625 9.375 1.8125 9.375 2.12109V8.81641ZM22.8797 0H16.1828C15.0141 0 14.0625 0.951562 14.0625 2.12109V8.81641C14.0625 9.98594 15.0141 10.9375 16.1828 10.9375H22.8797C24.0484 10.9375 25 9.98594 25 8.81641V2.12109C25 0.951562 24.0484 0 22.8797 0ZM23.4375 8.81641C23.4375 9.125 23.1875 9.375 22.8797 9.375H16.1828C15.875 9.375 15.625 9.125 15.625 8.81641V2.12109C15.625 1.8125 15.875 1.5625 16.1828 1.5625H22.8797C23.1875 1.5625 23.4375 1.8125 23.4375 2.12109V8.81641ZM8.81719 14.0625H2.12031C0.951562 14.0625 0 15.0141 0 16.1828V22.8797C0 24.0484 0.951562 25 2.12031 25H8.81719C9.98594 25 10.9375 24.0484 10.9375 22.8797V16.1828C10.9375 15.0141 9.98594 14.0625 8.81719 14.0625ZM9.375 22.8797C9.375 23.1875 9.125 23.4375 8.81719 23.4375H2.12031C1.8125 23.4375 1.5625 23.1875 1.5625 22.8797V16.1828C1.5625 15.875 1.8125 15.625 2.12031 15.625H8.81719C9.125 15.625 9.375 15.875 9.375 16.1828V22.8797ZM22.8797 14.0625H16.1828C15.0141 14.0625 14.0625 15.0141 14.0625 16.1828V22.8797C14.0625 24.0484 15.0141 25 16.1828 25H22.8797C24.0484 25 25 24.0484 25 22.8797V16.1828C25 15.0141 24.0484 14.0625 22.8797 14.0625ZM23.4375 22.8797C23.4375 23.1875 23.1875 23.4375 22.8797 23.4375H16.1828C15.875 23.4375 15.625 23.1875 15.625 22.8797V16.1828C15.625 15.875 15.875 15.625 16.1828 15.625H22.8797C23.1875 15.625 23.4375 15.875 23.4375 16.1828V22.8797Z" fill="black"/>
</svg>
