<svg width="25" height="26" viewBox="0 0 25 26" fill="none" xmlns="http://www.w3.org/2000/svg">
<path d="M12.5 5.92072C11.1963 5.92237 9.9465 6.44099 9.02465 7.36284C8.1028 8.2847 7.58417 9.53452 7.58252 10.8382H10.0825C10.0825 9.50447 11.1675 8.42072 12.5 8.42072C13.8325 8.42072 14.9175 9.50447 14.9175 10.8382C14.9175 11.5857 14.3163 12.1282 13.3975 12.8707C13.0974 13.1058 12.8091 13.3557 12.5338 13.6195C11.2863 14.8657 11.25 16.1895 11.25 16.337V17.1707H13.75L13.7488 16.3795C13.75 16.3595 13.79 15.897 14.3 15.3882C14.4875 15.2007 14.7238 15.0132 14.9688 14.8157C15.9425 14.027 17.4163 12.8357 17.4163 10.8382C17.4153 9.53453 16.897 8.28451 15.9753 7.36256C15.0536 6.4406 13.8037 5.92204 12.5 5.92072ZM11.25 18.4207H13.75V20.9207H11.25V18.4207Z" fill="black"/>
<path d="M12.5 0.920715C5.6075 0.920715 0 6.52822 0 13.4207C0 20.3132 5.6075 25.9207 12.5 25.9207C19.3925 25.9207 25 20.3132 25 13.4207C25 6.52822 19.3925 0.920715 12.5 0.920715ZM12.5 23.4207C6.98625 23.4207 2.5 18.9345 2.5 13.4207C2.5 7.90697 6.98625 3.42072 12.5 3.42072C18.0138 3.42072 22.5 7.90697 22.5 13.4207C22.5 18.9345 18.0138 23.4207 12.5 23.4207Z" fill="black"/>
</svg>
