<svg width="27" height="25" viewBox="0 0 27 25" fill="none" xmlns="http://www.w3.org/2000/svg">
<path d="M4.6875 3.125C5.1019 3.125 5.49933 2.96038 5.79235 2.66735C6.08538 2.37433 6.25 1.9769 6.25 1.5625C6.25 1.1481 6.08538 0.750672 5.79235 0.457646C5.49933 0.16462 5.1019 0 4.6875 0H1.5625C1.1481 0 0.750672 0.16462 0.457646 0.457646C0.16462 0.750672 0 1.1481 0 1.5625V23.4375C0 23.8519 0.16462 24.2493 0.457646 24.5424C0.750672 24.8354 1.1481 25 1.5625 25H4.6875C5.1019 25 5.49933 24.8354 5.79235 24.5424C6.08538 24.2493 6.25 23.8519 6.25 23.4375C6.25 23.0231 6.08538 22.6257 5.79235 22.3326C5.49933 22.0396 5.1019 21.875 4.6875 21.875H3.125V3.125H4.6875ZM26.2812 11.5938L21.875 5.34375C21.636 5.00689 21.2734 4.77835 20.8664 4.70808C20.4595 4.63781 20.0412 4.73153 19.7031 4.96875C19.5341 5.08717 19.3903 5.23788 19.2799 5.4122C19.1694 5.58651 19.0946 5.78097 19.0598 5.98435C19.0249 6.18773 19.0307 6.396 19.0767 6.59715C19.1228 6.79829 19.2082 6.98831 19.3281 7.15625L22.0156 10.9375H9.375C8.9606 10.9375 8.56317 11.1021 8.27015 11.3951C7.97712 11.6882 7.8125 12.0856 7.8125 12.5C7.8125 12.9144 7.97712 13.3118 8.27015 13.6049C8.56317 13.8979 8.9606 14.0625 9.375 14.0625H21.875L19.0625 17.8125C18.9394 17.9767 18.8498 18.1634 18.7989 18.3622C18.748 18.561 18.7367 18.7678 18.7657 18.971C18.7947 19.1741 18.8635 19.3695 18.968 19.5461C19.0726 19.7226 19.2108 19.8769 19.375 20C19.6455 20.2028 19.9744 20.3125 20.3125 20.3125C20.5551 20.3125 20.7943 20.256 21.0113 20.1475C21.2282 20.0391 21.417 19.8816 21.5625 19.6875L26.25 13.4375C26.4501 13.1732 26.561 12.8522 26.5666 12.5207C26.5722 12.1893 26.4723 11.8646 26.2812 11.5938Z" fill="black"/>
</svg>
