<svg width="32" height="25" viewBox="0 0 32 25" fill="none" xmlns="http://www.w3.org/2000/svg">
<path d="M5.68182 6.81818C5.38044 6.81818 5.0914 6.93791 4.87829 7.15102C4.66518 7.36412 4.54545 7.65316 4.54545 7.95455C4.54545 8.25593 4.66518 8.54497 4.87829 8.75808C5.0914 8.97118 5.38044 9.09091 5.68182 9.09091H21.5909C21.8923 9.09091 22.1813 8.97118 22.3944 8.75808C22.6075 8.54497 22.7273 8.25593 22.7273 7.95455C22.7273 7.65316 22.6075 7.36412 22.3944 7.15102C22.1813 6.93791 21.8923 6.81818 21.5909 6.81818H5.68182ZM5.68182 11.3636C5.38044 11.3636 5.0914 11.4834 4.87829 11.6965C4.66518 11.9096 4.54545 12.1986 4.54545 12.5V17.0455C4.54545 17.3468 4.66518 17.6359 4.87829 17.849C5.0914 18.0621 5.38044 18.1818 5.68182 18.1818H10.2273C10.5287 18.1818 10.8177 18.0621 11.0308 17.849C11.2439 17.6359 11.3636 17.3468 11.3636 17.0455V12.5C11.3636 12.1986 11.2439 11.9096 11.0308 11.6965C10.8177 11.4834 10.5287 11.3636 10.2273 11.3636H5.68182ZM6.81818 15.9091V13.6364H9.09091V15.9091H6.81818ZM14.7727 11.3636C14.4713 11.3636 14.1823 11.4834 13.9692 11.6965C13.7561 11.9096 13.6364 12.1986 13.6364 12.5C13.6364 12.8014 13.7561 13.0904 13.9692 13.3035C14.1823 13.5166 14.4713 13.6364 14.7727 13.6364H21.5909C21.8923 13.6364 22.1813 13.5166 22.3944 13.3035C22.6075 13.0904 22.7273 12.8014 22.7273 12.5C22.7273 12.1986 22.6075 11.9096 22.3944 11.6965C22.1813 11.4834 21.8923 11.3636 21.5909 11.3636H14.7727ZM14.7727 15.9091C14.4713 15.9091 14.1823 16.0288 13.9692 16.2419C13.7561 16.455 13.6364 16.7441 13.6364 17.0455C13.6364 17.3468 13.7561 17.6359 13.9692 17.849C14.1823 18.0621 14.4713 18.1818 14.7727 18.1818H21.5909C21.8923 18.1818 22.1813 18.0621 22.3944 17.849C22.6075 17.6359 22.7273 17.3468 22.7273 17.0455C22.7273 16.7441 22.6075 16.455 22.3944 16.2419C22.1813 16.0288 21.8923 15.9091 21.5909 15.9091H14.7727ZM0 4.54545C0 3.33993 0.478895 2.18377 1.33133 1.33133C2.18377 0.478895 3.33993 0 4.54545 0H22.7273C23.9328 0 25.089 0.478895 25.9414 1.33133C26.7938 2.18377 27.2727 3.33993 27.2727 4.54545C28.4783 4.54545 29.6344 5.02435 30.4868 5.87679C31.3393 6.72923 31.8182 7.88538 31.8182 9.09091V19.3182C31.8182 20.8251 31.2196 22.2703 30.154 23.3358C29.0885 24.4014 27.6433 25 26.1364 25H5.68182C4.17491 25 2.72971 24.4014 1.66417 23.3358C0.598618 22.2703 0 20.8251 0 19.3182V4.54545ZM26.1364 19.3182C25.835 19.3182 25.5459 19.1985 25.3328 18.9853C25.1197 18.7722 25 18.4832 25 18.1818V4.54545C25 3.94269 24.7606 3.36461 24.3343 2.93839C23.9081 2.51217 23.33 2.27273 22.7273 2.27273H4.54545C3.94269 2.27273 3.36461 2.51217 2.93839 2.93839C2.51217 3.36461 2.27273 3.94269 2.27273 4.54545V19.3182C2.27273 20.2223 2.6319 21.0894 3.27123 21.7288C3.91056 22.3681 4.77767 22.7273 5.68182 22.7273H26.1364C27.0405 22.7273 27.9076 22.3681 28.547 21.7288C29.1863 21.0894 29.5455 20.2223 29.5455 19.3182V9.09091C29.5455 8.48814 29.306 7.91007 28.8798 7.48385C28.4536 7.05763 27.8755 6.81818 27.2727 6.81818V18.1818C27.2727 18.4832 27.153 18.7722 26.9399 18.9853C26.7268 19.1985 26.4377 19.3182 26.1364 19.3182Z" fill="black"/>
</svg>
