<svg width="26" height="25" viewBox="0 0 26 25" fill="none" xmlns="http://www.w3.org/2000/svg">
<path d="M17.8977 14.7727C17.6717 14.7727 17.4549 14.8625 17.2951 15.0224C17.1352 15.1822 17.0455 15.399 17.0455 15.625C17.0455 15.851 17.1352 16.0678 17.2951 16.2276C17.4549 16.3875 17.6717 16.4773 17.8977 16.4773H20.7386C20.9647 16.4773 21.1815 16.3875 21.3413 16.2276C21.5011 16.0678 21.5909 15.851 21.5909 15.625C21.5909 15.399 21.5011 15.1822 21.3413 15.0224C21.1815 14.8625 20.9647 14.7727 20.7386 14.7727H17.8977ZM1.48957e-06 3.125C1.48957e-06 2.2962 0.329242 1.50134 0.915293 0.915291C1.50134 0.32924 2.2962 0 3.125 0H18.4659C19.2947 0 20.0896 0.32924 20.6756 0.915291C21.2617 1.50134 21.5909 2.2962 21.5909 3.125V4.55455C22.6696 4.62662 23.6805 5.10597 24.419 5.8955C25.1575 6.68504 25.5683 7.72574 25.5682 8.80682V20.7386C25.5682 21.8688 25.1192 22.9527 24.3201 23.7519C23.5209 24.551 22.437 25 21.3068 25H4.26591C3.13573 25 2.05183 24.551 1.25267 23.7519C0.453511 22.9527 0.00454689 21.8688 0.00454689 20.7386V8.80682H1.48957e-06V3.40909H0.0125014C0.00408026 3.31463 -9.05225e-05 3.21984 1.48957e-06 3.125ZM21.3068 6.25H1.70909V20.7386C1.70909 21.4167 1.97847 22.0671 2.45797 22.5466C2.93746 23.0261 3.5878 23.2955 4.26591 23.2955H21.3068C21.9849 23.2955 22.6353 23.0261 23.1148 22.5466C23.5943 22.0671 23.8636 21.4167 23.8636 20.7386V8.80682C23.8636 8.12871 23.5943 7.47837 23.1148 6.99887C22.6353 6.51938 21.9849 6.25 21.3068 6.25ZM19.8864 3.125C19.8864 2.34091 19.25 1.70455 18.4659 1.70455H3.125C2.74827 1.70455 2.38698 1.8542 2.12059 2.12059C1.8542 2.38697 1.70455 2.74827 1.70455 3.125C1.70455 3.50173 1.8542 3.86303 2.12059 4.12941C2.38698 4.3958 2.74827 4.54545 3.125 4.54545H19.8864V3.125Z" fill="black"/>
</svg>
