<svg width="40" height="40" viewBox="0 0 40 40" fill="none" xmlns="http://www.w3.org/2000/svg">
<path d="M11.7 31.7C9.555 31.7 7.8195 33.455 7.8195 35.6C7.8195 37.745 9.555 39.5 11.7 39.5C13.845 39.5 15.6 37.745 15.6 35.6C15.6 33.455 13.845 31.7 11.7 31.7ZM31.2 31.7C29.055 31.7 27.3195 33.455 27.3195 35.6C27.3195 37.745 29.055 39.5 31.2 39.5C33.345 39.5 35.1 37.745 35.1 35.6C35.1 33.455 33.345 31.7 31.2 31.7ZM28.3725 21.95C29.835 21.95 31.122 21.1505 31.785 19.9415L38.766 7.286C38.9303 6.99043 39.0147 6.65707 39.0106 6.31891C39.0065 5.98075 38.9143 5.6495 38.7429 5.35796C38.5715 5.06642 38.327 4.82467 38.0335 4.65666C37.74 4.48864 37.4077 4.40017 37.0695 4.4H8.2095L6.3765 0.5H0V4.4H3.9L10.92 19.2005L8.2875 23.9585C6.864 26.5715 8.736 29.75 11.7 29.75H35.1V25.85H11.7L13.845 21.95H28.3725ZM10.062 8.3H33.7545L28.3725 18.05H14.6835L10.062 8.3Z" fill="black"/>
</svg>
