<svg width="37" height="42" viewBox="0 0 37 42" fill="none" xmlns="http://www.w3.org/2000/svg">
<path d="M2.57835 16.788C2.65679 15.8107 3.10047 14.8988 3.82104 14.2338C4.5416 13.5689 5.48618 13.1998 6.46665 13.2H29.9798C30.9602 13.1998 31.9048 13.5689 32.6254 14.2338C33.3459 14.8988 33.7896 15.8107 33.8681 16.788L35.4339 36.288C35.477 36.8246 35.4085 37.3644 35.2327 37.8732C35.057 38.3821 34.7778 38.849 34.4127 39.2447C34.0476 39.6404 33.6046 39.9561 33.1115 40.1722C32.6184 40.3882 32.0859 40.4999 31.5476 40.5H4.89885C4.3605 40.4999 3.82801 40.3882 3.33491 40.1722C2.84181 39.9561 2.39878 39.6404 2.03371 39.2447C1.66864 38.849 1.38944 38.3821 1.21368 37.8732C1.03793 37.3644 0.969432 36.8246 1.0125 36.288L2.57835 16.788V16.788Z" stroke="black" stroke-width="2" stroke-linecap="round" stroke-linejoin="round"/>
<path d="M26.0233 19.05V9.3C26.0233 7.23131 25.2016 5.24735 23.7388 3.78457C22.276 2.32178 20.292 1.5 18.2233 1.5C16.1547 1.5 14.1707 2.32178 12.7079 3.78457C11.2451 5.24735 10.4233 7.23131 10.4233 9.3V19.05" stroke="black" stroke-width="2" stroke-linecap="round" stroke-linejoin="round"/>
</svg>
