<svg width="33" height="40" viewBox="0 0 33 40" fill="none" xmlns="http://www.w3.org/2000/svg">
<path d="M24.5506 39.5C23.8048 39.1981 23.2721 38.5234 23.1478 37.7243C23.059 37.2627 23.1478 36.943 23.858 35.6645C26.5216 30.8702 27.8888 25.4544 27.8178 19.9676C27.8888 14.6406 26.5926 9.43787 24.0356 4.76786C23.6627 3.98656 23.3253 3.24078 23.0412 2.44173C23.1478 1.76697 23.4852 1.14548 24.0356 0.772593C24.8347 0.346432 25.8113 0.435216 26.5393 0.932404C27.0365 1.57165 27.4627 2.21089 27.8178 2.95667C29.7283 6.61615 31.0298 10.5625 31.671 14.6406C32.0794 17.8546 32.1327 21.1218 31.8308 24.3535C31.2804 28.5086 30.0551 32.5216 28.1729 36.2683C27.0365 38.5411 26.3973 39.5 25.7225 39.5H24.5506ZM16.8086 35.5758C15.7965 35.2917 15.1573 34.2618 15.3703 33.2319C15.3703 33.0188 15.9208 32.0422 16.418 31.0478C18.5133 27.017 19.4189 22.4713 19.0105 17.9433C18.7619 14.6939 17.8208 11.5332 16.2759 8.67433C15.1573 6.43699 15.0862 6.08185 15.7432 5.12299C16.5245 4.25291 17.8208 4.12861 18.7796 4.8744C20.0581 6.75661 21.0702 8.81639 21.816 10.9827C24.0889 17.7125 23.7338 25.046 20.8216 31.5095C19.3301 34.8655 18.2824 35.9487 16.8086 35.487V35.5758ZM8.81811 31.616C8.50194 31.4741 8.22147 31.2634 7.9972 30.9991C7.77293 30.7349 7.61053 30.424 7.52187 30.0889C7.52187 29.7338 7.52187 29.2721 8.32092 27.8516C9.62262 25.4916 10.3053 22.8403 10.3053 20.1452C10.3053 17.45 9.62262 14.7987 8.32092 12.4388C7.16673 10.2014 7.16673 9.73974 8.10784 8.88741C8.44522 8.49677 8.9424 8.30144 9.47511 8.37247C10.6115 8.37247 11.2508 8.92293 12.2096 10.9294C13.7194 13.7015 14.5014 16.8111 14.4825 19.9676C14.5535 23.1816 13.7722 26.3778 12.2274 29.2011C11.2685 31.0656 10.7891 31.5095 9.83024 31.6693C9.49286 31.7048 9.13773 31.6693 8.81811 31.5095V31.616ZM1.34253 27.8338C0.756557 27.5497 0.294882 27.0703 0.0640449 26.4488C-0.113522 25.8273 0.064045 25.2946 0.774314 24.1582C1.66215 22.9507 2.08831 21.4592 1.99953 19.9676C2.12382 18.4583 1.71542 16.9667 0.845341 15.7238C0.550617 15.2761 0.28947 14.8072 0.0640449 14.321C-0.131279 13.2023 0.614503 12.1369 1.83972 11.9238C2.79858 11.7462 3.47334 12.1547 4.36117 13.5042C5.6209 15.4212 6.29214 17.6649 6.29214 19.9587C6.29214 22.2526 5.6209 24.4963 4.36117 26.4133C3.45558 27.7806 2.42569 28.189 1.36029 27.8338H1.34253Z" fill="black"/>
</svg>
