<svg width="36" height="40" viewBox="0 0 36 40" fill="none" xmlns="http://www.w3.org/2000/svg">
<path d="M9.66802 28.419C11.0327 28.419 12.139 27.3127 12.139 25.948C12.139 24.5833 11.0327 23.477 9.66802 23.477C8.30333 23.477 7.19702 24.5833 7.19702 25.948C7.19702 27.3127 8.30333 28.419 9.66802 28.419Z" stroke="black" stroke-linecap="round" stroke-linejoin="round"/>
<path d="M26.816 28.419C28.1807 28.419 29.287 27.3127 29.287 25.948C29.287 24.5833 28.1807 23.477 26.816 23.477C25.4513 23.477 24.345 24.5833 24.345 25.948C24.345 27.3127 25.4513 28.419 26.816 28.419Z" stroke="black" stroke-linecap="round" stroke-linejoin="round"/>
<path d="M15.59 5.53101H8.00901C7.51472 5.53101 7.11401 5.93171 7.11401 6.42601V16.35C7.11401 16.8443 7.51472 17.245 8.00901 17.245H15.59C16.0843 17.245 16.485 16.8443 16.485 16.35V6.42601C16.485 5.93171 16.0843 5.53101 15.59 5.53101Z" stroke="black" stroke-linecap="round" stroke-linejoin="round"/>
<path d="M8.461 33.924L1 39.5M28.023 33.924L35.484 39.5" stroke="black" stroke-linecap="round" stroke-linejoin="round"/>
<path d="M3.08496 5.877V28.495C3.08787 29.92 3.65517 31.2858 4.6627 32.2935C5.67024 33.3013 7.03596 33.8688 8.46096 33.872H28.023C29.448 33.8688 30.8137 33.3013 31.8212 32.2935C32.8288 31.2858 33.3961 29.92 33.399 28.495V5.877C33.3961 4.452 32.8288 3.08617 31.8212 2.07845C30.8137 1.07072 29.448 0.503171 28.023 0.5H8.46096C7.03596 0.503171 5.67024 1.07072 4.6627 2.07845C3.65517 3.08617 3.08787 4.452 3.08496 5.877V5.877Z" stroke="black" stroke-linecap="round" stroke-linejoin="round"/>
<path d="M28.475 5.53101H20.894C20.3997 5.53101 19.999 5.93171 19.999 6.42601V16.35C19.999 16.8443 20.3997 17.245 20.894 17.245H28.475C28.9693 17.245 29.37 16.8443 29.37 16.35V6.42601C29.37 5.93171 28.9693 5.53101 28.475 5.53101Z" stroke="black" stroke-linecap="round" stroke-linejoin="round"/>
</svg>
